<mxfile host="app.diagrams.net" modified="2021-10-12T11:53:52.635Z" agent="5.0 (Windows NT 10.0; Win64; x64) AppleWebKit/537.36 (KHTML, like Gecko) Chrome/92.0.4515.131 Safari/537.36" etag="LgCubquIDbZVjoqFVghG" version="15.5.1" type="github">
  <diagram id="0W6gI1zaMcV8jhzeGsng" name="Page-1">
    <mxGraphModel dx="996" dy="616" grid="1" gridSize="10" guides="1" tooltips="1" connect="1" arrows="1" fold="1" page="1" pageScale="1" pageWidth="827" pageHeight="1169" math="0" shadow="0">
      <root>
        <mxCell id="0" />
        <mxCell id="1" parent="0" />
        <mxCell id="dD_tR-46pwAuyIkLDm4j-2" style="edgeStyle=orthogonalEdgeStyle;rounded=0;orthogonalLoop=1;jettySize=auto;html=1;entryX=0;entryY=0.5;entryDx=0;entryDy=0;fontSize=14;" edge="1" parent="1" source="5gr-5OpFDuaY5Mmk2K2i-1" target="dD_tR-46pwAuyIkLDm4j-1">
          <mxGeometry relative="1" as="geometry" />
        </mxCell>
        <mxCell id="5gr-5OpFDuaY5Mmk2K2i-1" value="&lt;font style=&quot;font-size: 14px&quot;&gt;&lt;b&gt;获取用户信息&lt;br&gt;&lt;/b&gt;/user/:username&lt;/font&gt;" style="rounded=0;whiteSpace=wrap;html=1;fillColor=#ffcc99;strokeColor=#36393d;strokeWidth=1.5;" parent="1" vertex="1">
          <mxGeometry x="170" y="180" width="120" height="60" as="geometry" />
        </mxCell>
        <mxCell id="dD_tR-46pwAuyIkLDm4j-4" style="edgeStyle=orthogonalEdgeStyle;rounded=0;orthogonalLoop=1;jettySize=auto;html=1;fontSize=14;" edge="1" parent="1" source="5gr-5OpFDuaY5Mmk2K2i-2" target="dD_tR-46pwAuyIkLDm4j-1">
          <mxGeometry relative="1" as="geometry" />
        </mxCell>
        <mxCell id="5gr-5OpFDuaY5Mmk2K2i-2" value="&lt;font style=&quot;font-size: 14px&quot;&gt;&lt;b&gt;获取房间信息&lt;br&gt;&lt;/b&gt;/room/:roomid&lt;/font&gt;" style="rounded=0;whiteSpace=wrap;html=1;fillColor=#cce5ff;strokeColor=#36393d;strokeWidth=1.5;" parent="1" vertex="1">
          <mxGeometry x="350" y="180" width="120" height="60" as="geometry" />
        </mxCell>
        <mxCell id="dD_tR-46pwAuyIkLDm4j-5" style="edgeStyle=orthogonalEdgeStyle;rounded=0;orthogonalLoop=1;jettySize=auto;html=1;fontSize=14;" edge="1" parent="1" source="dD_tR-46pwAuyIkLDm4j-1">
          <mxGeometry relative="1" as="geometry">
            <mxPoint x="320" y="440" as="targetPoint" />
          </mxGeometry>
        </mxCell>
        <mxCell id="dD_tR-46pwAuyIkLDm4j-8" value="" style="edgeStyle=orthogonalEdgeStyle;rounded=0;orthogonalLoop=1;jettySize=auto;html=1;fontSize=14;" edge="1" parent="1" source="dD_tR-46pwAuyIkLDm4j-1">
          <mxGeometry relative="1" as="geometry">
            <mxPoint x="470" y="330" as="targetPoint" />
          </mxGeometry>
        </mxCell>
        <mxCell id="dD_tR-46pwAuyIkLDm4j-1" value="" style="triangle;whiteSpace=wrap;html=1;fontSize=14;strokeWidth=1.5;rotation=90;direction=east;fillColor=#f8cecc;strokeColor=#000000;" vertex="1" parent="1">
          <mxGeometry x="290" y="290" width="60" height="80" as="geometry" />
        </mxCell>
        <mxCell id="dD_tR-46pwAuyIkLDm4j-6" value="&lt;b&gt;200&lt;/b&gt;" style="text;html=1;align=center;verticalAlign=middle;resizable=0;points=[];autosize=1;strokeColor=none;fillColor=none;fontSize=14;" vertex="1" parent="1">
          <mxGeometry x="280" y="390" width="40" height="20" as="geometry" />
        </mxCell>
        <mxCell id="dD_tR-46pwAuyIkLDm4j-14" value="" style="edgeStyle=orthogonalEdgeStyle;rounded=0;orthogonalLoop=1;jettySize=auto;html=1;fontSize=14;" edge="1" parent="1" source="dD_tR-46pwAuyIkLDm4j-9" target="5gr-5OpFDuaY5Mmk2K2i-2">
          <mxGeometry relative="1" as="geometry">
            <Array as="points">
              <mxPoint x="320" y="140" />
              <mxPoint x="410" y="140" />
            </Array>
          </mxGeometry>
        </mxCell>
        <mxCell id="dD_tR-46pwAuyIkLDm4j-15" style="edgeStyle=orthogonalEdgeStyle;rounded=0;orthogonalLoop=1;jettySize=auto;html=1;fontSize=14;" edge="1" parent="1" target="5gr-5OpFDuaY5Mmk2K2i-1">
          <mxGeometry relative="1" as="geometry">
            <mxPoint x="320" y="140" as="sourcePoint" />
            <Array as="points">
              <mxPoint x="345" y="140" />
              <mxPoint x="230" y="140" />
            </Array>
          </mxGeometry>
        </mxCell>
        <mxCell id="dD_tR-46pwAuyIkLDm4j-9" value="" style="shape=umlActor;verticalLabelPosition=bottom;verticalAlign=top;html=1;outlineConnect=0;fontSize=14;strokeColor=#666666;strokeWidth=1.5;fillColor=#f5f5f5;fontColor=#333333;" vertex="1" parent="1">
          <mxGeometry x="305" y="40" width="30" height="60" as="geometry" />
        </mxCell>
        <mxCell id="dD_tR-46pwAuyIkLDm4j-11" value="&lt;b&gt;400&lt;/b&gt;" style="rounded=0;whiteSpace=wrap;html=1;fontSize=14;strokeColor=#000000;strokeWidth=1.5;fillColor=#e1d5e7;" vertex="1" parent="1">
          <mxGeometry x="470" y="300" width="60" height="60" as="geometry" />
        </mxCell>
      </root>
    </mxGraphModel>
  </diagram>
</mxfile>
